<?xml version="1.0" encoding="utf-8"?>
<!-- Generator: Adobe Illustrator 23.1.1, SVG Export Plug-In . SVG Version: 6.00 Build 0)  -->
<svg version="1.1" id="Layer_1" xmlns="http://www.w3.org/2000/svg" xmlns:xlink="http://www.w3.org/1999/xlink" x="0px" y="0px"
	 viewBox="0 0 230 57" style="enable-background:new 0 0 230 57;" xml:space="preserve">
<style type="text/css">
	.st0{fill:#FFFFFF;}
	.st1{fill:url(#SVGID_1_);}
</style>
<g>
	<g>
		<g>
			<path class="st0" d="M70.4,7.3c3.8,0,6.8,1,9.1,3.1c2.3,2.1,3.4,4.8,3.4,8.3c0,3.4-1.1,6.2-3.4,8.3c-2.3,2-5.4,3-9.1,3H62V7.3
				H70.4z M70.4,25.9c2.4,0,4.3-0.7,5.7-2c1.4-1.3,2.1-3.1,2.1-5.3s-0.7-4-2.1-5.3s-3.3-2-5.7-2h-3.8v14.6L70.4,25.9z"/>
			<path class="st0" d="M90.4,6.1c0.5,0.5,0.8,1.2,0.8,1.9s-0.3,1.4-0.8,1.9s-1.2,0.7-1.9,0.7c-0.8,0-1.4-0.2-2-0.7S85.7,8.7,85.7,8
				s0.3-1.4,0.8-1.9s1.2-0.8,1.9-0.8S89.8,5.6,90.4,6.1z M86.2,30V13h4.5v17H86.2z"/>
			<path class="st0" d="M98.1,24.6c0.2,1.5,1.4,2.3,3.5,2.3c0.8,0,1.5-0.2,1.9-0.5c0.5-0.3,0.7-0.7,0.7-1.2c0-0.7-0.6-1.3-1.9-1.5
				L98.9,23c-1.5-0.3-2.7-0.9-3.6-1.7c-0.8-0.8-1.2-1.9-1.2-3.1c0-1.7,0.6-3,1.9-4s2.9-1.6,5.1-1.6c2,0,3.6,0.5,5,1.4
				c1.3,0.9,2.1,2.1,2.4,3.6l-4.3,0.9c-0.1-0.7-0.4-1.3-1-1.7c-0.6-0.4-1.3-0.6-2.2-0.6c-0.8,0-1.4,0.2-1.8,0.5s-0.5,0.7-0.5,1.2
				c0,0.7,0.5,1.2,1.5,1.4l4,0.9c1.5,0.3,2.6,0.9,3.3,1.8c0.8,0.9,1.1,1.9,1.1,3c0,1.8-0.7,3.2-2,4.2s-3.2,1.5-5.4,1.5
				c-2,0-3.7-0.4-5.2-1.2c-1.4-0.8-2.2-2.1-2.4-3.8L98.1,24.6z"/>
			<path class="st0" d="M123.1,13l-0.2,4.3h-1c-4,0-6.1,2.4-6.1,7.3V30h-4.5V13h4.5v3.1c1.5-2.2,3.6-3.3,6.1-3.3
				C122.4,12.8,122.8,12.9,123.1,13z"/>
			<path class="st0" d="M141.4,30h-4.5v-1.5c-1.4,1.4-3.1,2-5.3,2c-2,0-3.7-0.7-4.9-2c-1.2-1.3-1.9-3-1.9-5.2V13.1h4.5v9.4
				c0,1.2,0.3,2.2,0.9,2.9s1.5,1.1,2.5,1.1c2.8,0,4.2-2,4.2-5.9v-7.5h4.5L141.4,30L141.4,30z"/>
			<path class="st0" d="M161.4,15.1c1.7,1.7,2.5,3.9,2.5,6.4s-0.8,4.7-2.5,6.4c-1.7,1.7-3.6,2.6-5.9,2.6c-2.2,0-4.1-0.6-5.6-1.8v7.1
				h-4.5V13.1h4.5v1.4c1.5-1.2,3.4-1.9,5.6-1.9C157.8,12.6,159.8,13.4,161.4,15.1z M158.2,25.3c0.9-0.9,1.3-2.1,1.3-3.7
				c0-1.5-0.4-2.8-1.3-3.7c-0.9-0.9-2-1.4-3.4-1.4c-1.3,0-2.4,0.5-3.4,1.4c-1,1-1.5,2.2-1.5,3.7s0.5,2.7,1.5,3.7
				c1,0.9,2.1,1.4,3.4,1.4C156.2,26.6,157.3,26.2,158.2,25.3z"/>
			<path class="st0" d="M179,29.3c-1.6,0.8-3,1.3-4.4,1.3c-2.1,0-3.7-0.6-4.9-1.7s-1.8-2.8-1.8-5.1v-7h-3.6v-3.7h3.6V7.9h4.5V13h5.5
				v3.7h-5.5v6.7c0,2,0.8,2.9,2.5,2.9c0.9,0,1.8-0.3,2.8-0.8L179,29.3z"/>
			<path class="st0" d="M185.2,6.1c0.5,0.5,0.8,1.2,0.8,1.9s-0.3,1.4-0.8,1.9s-1.2,0.7-1.9,0.7c-0.8,0-1.4-0.2-2-0.7
				c-0.5-0.5-0.8-1.1-0.8-1.9c0-0.7,0.3-1.4,0.8-1.9s1.2-0.8,1.9-0.8S184.6,5.6,185.2,6.1z M181,30V13h4.5v17H181z"/>
			<path class="st0" d="M199.6,30h-4.8l-7.1-17h4.8l4.6,11.5l4.6-11.5h4.8L199.6,30z"/>
			<path class="st0" d="M224.2,22.8h-12.9c0.2,1.2,0.7,2.2,1.5,2.9c0.8,0.7,1.7,1.1,2.7,1.1c1.9,0,3.3-0.7,4.2-2.2l4,0.9
				c-0.7,1.7-1.8,3-3.2,3.9s-3.1,1.3-5,1.3c-2.4,0-4.5-0.8-6.2-2.5s-2.5-3.8-2.5-6.5s0.8-4.8,2.5-6.5s3.8-2.5,6.2-2.5
				c2.3,0,4.3,0.8,6,2.4s2.5,3.7,2.6,6.2L224.2,22.8L224.2,22.8z M213,17.3c-0.8,0.5-1.3,1.3-1.6,2.3h8.2c-0.3-1-0.8-1.8-1.5-2.3
				s-1.6-0.8-2.5-0.8S213.8,16.7,213,17.3z"/>
		</g>
		<g>
			<path class="st0" d="M67.9,38.2c0.7,0.5,1.1,1.2,1.3,2L68,40.5c-0.1-0.6-0.4-1.1-0.9-1.5s-1-0.5-1.7-0.5s-1.2,0.2-1.6,0.5
				s-0.6,0.8-0.6,1.3c0,0.4,0.1,0.8,0.4,1c0.3,0.2,0.6,0.4,1.1,0.5l2.2,0.5c1.7,0.4,2.5,1.2,2.5,2.6c0,0.9-0.3,1.6-1,2.2
				c-0.7,0.5-1.6,0.8-2.7,0.8s-2-0.3-2.8-0.8s-1.2-1.3-1.3-2.2l1.2-0.3c0.1,0.7,0.4,1.2,1,1.6c0.5,0.4,1.2,0.6,2,0.6
				s1.4-0.2,1.8-0.5s0.7-0.8,0.7-1.4c0-0.5-0.1-0.8-0.4-1s-0.7-0.4-1.3-0.5l-2.3-0.5c-1.6-0.4-2.4-1.2-2.4-2.6c0-0.9,0.3-1.6,1-2.1
				s1.5-0.8,2.6-0.8C66.3,37.5,67.2,37.7,67.9,38.2z"/>
			<path class="st0" d="M75.7,47.3c-0.6,0.4-1.1,0.6-1.7,0.6c-0.7,0-1.3-0.2-1.8-0.7c-0.4-0.4-0.7-1.1-0.7-1.8v-4.1h-1.6v-1h1.6
				v-2.7h1.2v2.7h2.6v1h-2.6v4c0,0.5,0.1,0.8,0.4,1.1c0.2,0.3,0.6,0.4,1,0.4s0.8-0.1,1.3-0.4L75.7,47.3z"/>
			<path class="st0" d="M83.7,47.7h-1.2v-1.2c-0.6,0.9-1.6,1.4-2.8,1.4c-0.9,0-1.6-0.3-2.1-0.9s-0.8-1.3-0.8-2.3v-4.4H78v4.2
				c0,0.7,0.2,1.2,0.6,1.7c0.4,0.4,0.9,0.6,1.5,0.6c0.8,0,1.4-0.3,1.9-0.8s0.7-1.2,0.7-2.2v-3.5h1.2v7.4H83.7z"/>
			<path class="st0" d="M93.4,47.7h-1.1v-1.2c-0.7,0.9-1.7,1.4-2.9,1.4c-1,0-1.9-0.4-2.6-1.1c-0.7-0.7-1.1-1.7-1.1-2.8
				s0.4-2.1,1.1-2.8s1.6-1.1,2.6-1.1c1.3,0,2.3,0.5,2.9,1.4v-5.4h1.1V47.7z M91.5,46.1c0.6-0.5,0.8-1.2,0.8-2.1
				c0-0.8-0.3-1.5-0.8-2.1c-0.6-0.5-1.2-0.8-1.9-0.8c-0.8,0-1.4,0.3-2,0.8c-0.5,0.5-0.8,1.2-0.8,2.1c0,0.9,0.3,1.5,0.8,2.1
				c0.5,0.5,1.2,0.8,2,0.8C90.3,46.9,90.9,46.6,91.5,46.1z"/>
			<path class="st0" d="M97.3,37.5c0.2,0.1,0.2,0.3,0.2,0.5s-0.1,0.4-0.2,0.5s-0.3,0.2-0.6,0.2c-0.2,0-0.4-0.1-0.6-0.2
				c-0.1-0.1-0.2-0.3-0.2-0.5s0.1-0.4,0.2-0.5s0.3-0.2,0.6-0.2S97.2,37.4,97.3,37.5z M96.2,47.7v-7.4h1.2v7.4H96.2z"/>
			<path class="st0" d="M106.1,41.2c0.8,0.7,1.1,1.6,1.1,2.8c0,1.1-0.4,2-1.1,2.8c-0.8,0.7-1.7,1.1-2.8,1.1c-1.1,0-2-0.4-2.8-1.1
				c-0.8-0.7-1.1-1.7-1.1-2.8s0.4-2,1.1-2.8c0.8-0.7,1.7-1.1,2.8-1.1C104.4,40.1,105.4,40.5,106.1,41.2z M105.3,46.1
				c0.5-0.5,0.8-1.2,0.8-2.1c0-0.8-0.3-1.5-0.8-2s-1.2-0.8-2-0.8s-1.4,0.3-2,0.8c-0.5,0.5-0.8,1.2-0.8,2s0.3,1.5,0.8,2.1
				c0.5,0.5,1.2,0.8,2,0.8C104.1,46.9,104.8,46.6,105.3,46.1z"/>
		</g>
		<g>
			<path class="st0" d="M229,12.4c0,1-0.8,1.7-1.7,1.7c-1,0-1.7-0.8-1.7-1.7s0.8-1.7,1.7-1.7C228.2,10.7,229,11.4,229,12.4z
				 M228.7,12.4c0-0.8-0.6-1.4-1.4-1.4s-1.4,0.6-1.4,1.4c0,0.8,0.6,1.4,1.4,1.4S228.7,13.2,228.7,12.4z M228.3,12.9
				c-0.2,0.3-0.5,0.6-1,0.6c-0.6,0-1.1-0.5-1.1-1.1s0.5-1.1,1.1-1.1c0.4,0,0.8,0.2,1,0.6c-0.2,0.1-0.2,0.1-0.4,0.2
				c-0.1-0.2-0.3-0.3-0.6-0.3c-0.3,0-0.6,0.3-0.6,0.6s0.3,0.6,0.6,0.6c0.2,0,0.5-0.1,0.6-0.3C228.1,12.8,228.1,12.8,228.3,12.9z"/>
		</g>
	</g>
	<g>
		<g>
			
				<linearGradient id="SVGID_1_" gradientUnits="userSpaceOnUse" x1="24.4103" y1="57.8493" x2="24.4103" y2="1.4426" gradientTransform="matrix(1 0 0 -1 0 58)">
				<stop  offset="0" style="stop-color:#01ADFF"/>
				<stop  offset="1" style="stop-color:#6A37FF"/>
			</linearGradient>
			<path class="st1" d="M18.7,56.6c-2.9,0-5.9-0.7-8.7-2.2c-6-3.2-9.7-9.3-9.7-16.2V17.6c0-6.9,3.9-12.9,10.1-15.8
				C16.7-1.1,23.8,0,29,4.5l12.9,11.1c4.5,4,6.9,9.7,6.5,15.7S44.9,42.7,39.9,46L29,53.4C25.8,55.6,22.3,56.6,18.7,56.6z M5.4,18.7
				v19.5c0,5,2.6,9.4,7.1,11.7c4.4,2.3,9.5,2.1,13.7-0.7l10.9-7.4c3.7-2.5,5.9-6.4,6.2-10.9c0.3-4.4-1.5-8.6-4.8-11.6l-12.8-11
				C22,5.1,17,4.4,12.6,6.4c-0.7,0.3-1.4,0.7-2.1,1.2c2.8-0.3,5.7,0.6,8,2.5L34.4,23c2.1,1.7,3.3,4.3,3.2,7.1s-1.5,5.2-3.8,6.8
				l-10.5,7c-2.4,1.6-5.5,1.8-8.1,0.4c-2.6-1.4-4.2-4-4.2-6.9V17.9L29.8,33c0.1,0.1,0.2,0.1,0.2,0.2l0.8-0.5
				c0.9-0.6,1.5-1.6,1.6-2.8c0.1-1.1-0.4-2.2-1.3-2.9L15.3,14c-1.9-1.5-4.3-1.8-6.4-0.8C6.7,14.3,5.4,16.3,5.4,18.7z M16.1,28.5v8.9
				c0,1,0.5,1.9,1.5,2.4c0.9,0.5,2,0.4,2.8-0.1l5.3-3.6L16.1,28.5z"/>
		</g>
	</g>
</g>
</svg>
